# Rhino

mtllib house_new.mtl
usemtl diffuse_0
v -5.4515800476074219 0 5.3304338455200195
v -5.4515800476074219 8.1858921051025391 5.3304338455200195
v 5.4515800476074219 0 5.3304338455200195
v 5.4515800476074219 8.1858921051025391 5.3304338455200195
v 0 0 5.3304338455200195
v 5.4515800476074219 4.0929460525512695 5.3304338455200195
v 0 8.1858921051025391 5.3304338455200195
v -5.4515800476074219 4.0929460525512695 5.3304338455200195
v 5.4515800476074219 0 5.3304338455200195
v 5.4515800476074219 8.1858921051025391 5.3304338455200195
v 5.4515800476074219 0 -5.3304338455200195
v 5.4515800476074219 8.1858921051025391 -5.3304338455200195
v 5.4515800476074219 4.0929460525512695 5.3304338455200195
v 5.4515800476074219 0 0
v 5.4515800476074219 4.0929460525512695 -5.3304338455200195
v 5.4515800476074219 8.1858921051025391 0
v 5.4515800476074219 0 -5.3304338455200195
v 5.4515800476074219 8.1858921051025391 -5.3304338455200195
v -5.4515800476074219 0 -5.3304338455200195
v -5.4515800476074219 8.1858921051025391 -5.3304338455200195
v 5.4515800476074219 4.0929460525512695 -5.3304338455200195
v 0 0 -5.3304338455200195
v -5.4515800476074219 4.0929460525512695 -5.3304338455200195
v 0 8.1858921051025391 -5.3304338455200195
v -5.4515800476074219 0 -5.3304338455200195
v -5.4515800476074219 8.1858921051025391 -5.3304338455200195
v -5.4515800476074219 0 5.3304338455200195
v -5.4515800476074219 8.1858921051025391 5.3304338455200195
v -5.4515800476074219 4.0929460525512695 5.3304338455200195
v -5.4515800476074219 4.0929460525512695 -5.3304338455200195
v -5.4515800476074219 0 0
v -5.4515800476074219 8.1858921051025391 0
v -5.4515800476074219 8.1858921051025391 5.3304338455200195
v -5.4515800476074219 8.1858921051025391 -5.3304338455200195
v 0 13.245320320129395 5.3304338455200195
v 0 13.245320320129395 -5.3304338455200195
v -5.4515800476074219 8.1858921051025391 0
v 0 13.245320320129395 0
v 0 13.245320320129395 5.3304338455200195
v 0 13.245320320129395 -5.3304338455200195
v 5.4515800476074219 8.1858921051025391 5.3304338455200195
v 5.4515800476074219 8.1858921051025391 -5.3304338455200195
v 5.4515800476074219 8.1858921051025391 0
v 0 13.245320320129395 0
v -5.4515800476074219 8.1858921051025391 5.3304338455200195
v 5.4515800476074219 8.1858921051025391 5.3304338455200195
v 0 13.245320320129395 5.3304338455200195
v 0 8.1858921051025391 5.3304338455200195
v -5.4515800476074219 8.1858921051025391 -5.3304338455200195
v 5.4515800476074219 8.1858921051025391 -5.3304338455200195
v 0 13.245320320129395 -5.3304338455200195
v 0 8.1858921051025391 -5.3304338455200195
v -5.4515800476074219 0 5.3304338455200195
v -5.4515800476074219 0 -5.3304338455200195
v 5.4515800476074219 0 5.3304338455200195
v 5.4515800476074219 0 -5.3304338455200195
v 0 0 5.3304338455200195
v 5.4515800476074219 0 0
v 0 0 -5.3304338455200195
v -5.4515800476074219 0 0
vt 0.33582088351249695 0.71028769016265869
vt 0.33582088351249695 0.96095103025436401
vt 0.6701769232749939 0.71028769016265869
vt 0.6701769232749939 0.96095103025436401
vt 0.502998948097229 0.71028769016265869
vt 0.6701769232749939 0.83561939001083374
vt 0.502998948097229 0.96095103025436401
vt 0.33582088351249695 0.83561939001083374
vt 0.6716417670249939 0.48120793700218201
vt 0.6716417670249939 0.73333609104156494
vt 0.99853515625 0.48120793700218201
vt 0.99853515625 0.73333609104156494
vt 0.6716417670249939 0.60727202892303467
vt 0.83508849143981934 0.48120793700218201
vt 0.99853515625 0.60727202892303467
vt 0.83508849143981934 0.73333609104156494
vt 0.33582088351249695 0.45815956592559814
vt 0.33582088351249695 0.70882284641265869
vt 0.6701769232749939 0.45815956592559814
vt 0.6701769232749939 0.70882284641265869
vt 0.33582088351249695 0.58349120616912842
vt 0.502998948097229 0.45815956592559814
vt 0.6701769232749939 0.58349120616912842
vt 0.502998948097229 0.70882284641265869
vt 0.6716417670249939 0
vt 0.6716417670249939 0.25212815403938293
vt 0.99853515625 0
vt 0.99853515625 0.25212815403938293
vt 0.99853515625 0.12606407701969147
vt 0.6716417670249939 0.12606407701969147
vt 0.83508849143981934 0
vt 0.83508849143981934 0.25212815403938293
vt 0.66417908668518066 0
vt 0.33582088351249695 0
vt 0.66417908668518066 0.22761493921279907
vt 0.33582088351249695 0.22761493921279907
vt 0.5 0
vt 0.5 0.22761493921279907
vt 0.66417908668518066 0.22907978296279907
vt 0.33582088351249695 0.22907978296279907
vt 0.66417908668518066 0.45669472217559814
vt 0.33582088351249695 0.45669472217559814
vt 0.5 0.45669472217559814
vt 0.5 0.22907978296279907
vt 0.33435603976249695 0.71028769016265869
vt 0 0.71028769016265869
vt 0.33435603976249695 0.93936747312545776
vt 0.16717801988124847 0.71028769016265869
vt 0.33435603976249695 0.45815956592559814
vt 0 0.45815956592559814
vt 0.33435603976249695 0.68723934888839722
vt 0.16717801988124847 0.45815956592559814
vt 0.32835820317268372 0
vt 0 0
vt 0.32835820317268372 0.33582088351249695
vt 0 0.33582088351249695
vt 0.32835820317268372 0.16791044175624847
vt 0.16417910158634186 0.33582088351249695
vt 0 0.16791044175624847
vt 0.16417910158634186 0
vn 0 0 1
vn 0 0 1
vn 0 0 1
vn 0 0 1
vn 0 0 1
vn 0 0 1
vn 0 0 1
vn 0 0 1
vn 1 0 0
vn 1 0 0
vn 1 0 0
vn 1 0 0
vn 1 0 0
vn 1 0 0
vn 1 0 0
vn 1 0 0
vn 0 0 -1
vn 0 0 -1
vn 0 0 -1
vn 0 0 -1
vn 0 0 -1
vn 0 0 -1
vn 0 0 -1
vn 0 0 -1
vn -1 0 0
vn -1 0 0
vn -1 0 0
vn -1 0 0
vn -1 0 0
vn -1 0 0
vn -1 0 0
vn -1 0 0
vn -0.6802523136138916 0.73297804594039917 0
vn -0.6802523136138916 0.73297804594039917 0
vn -0.6802523136138916 0.73297804594039917 0
vn -0.6802523136138916 0.73297804594039917 0
vn -0.6802523136138916 0.73297804594039917 0
vn -0.6802523136138916 0.73297804594039917 0
vn 0.6802523136138916 0.73297804594039917 0
vn 0.6802523136138916 0.73297804594039917 0
vn 0.6802523136138916 0.73297804594039917 0
vn 0.6802523136138916 0.73297804594039917 0
vn 0.6802523136138916 0.73297804594039917 0
vn 0.6802523136138916 0.73297804594039917 0
vn 0 0 1
vn 0 0 1
vn 0 0 1
vn 0 0 1
vn 0 0 -1
vn 0 0 -1
vn 0 0 -1
vn 0 0 -1
vn 0 -1 0
vn 0 -1 0
vn 0 -1 0
vn 0 -1 0
vn 0 -1 0
vn 0 -1 0
vn 0 -1 0
vn 0 -1 0
f 8/8/8 1/1/1 5/5/5
f 8/8/8 7/7/7 2/2/2
f 6/6/6 8/8/8 5/5/5 3/3/3
f 8/8/8 6/6/6 4/4/4 7/7/7
f 13/13/13 15/15/15 12/12/12 16/16/16
f 13/13/13 16/16/16 10/10/10
f 14/14/14 13/13/13 9/9/9
f 15/15/15 14/14/14 11/11/11
f 14/14/14 15/15/15 13/13/13
f 21/21/21 17/17/17 22/22/22
f 21/21/21 24/24/24 18/18/18
f 23/23/23 21/21/21 22/22/22 19/19/19
f 21/21/21 23/23/23 20/20/20 24/24/24
f 30/30/30 25/25/25 31/31/31
f 30/30/30 32/32/32 26/26/26
f 29/29/29 30/30/30 31/31/31
f 30/30/30 29/29/29 32/32/32
f 29/29/29 28/28/28 32/32/32
f 27/27/27 29/29/29 31/31/31
f 37/37/37 33/33/33 35/35/35 38/38/38
f 34/34/34 37/37/37 38/38/38 36/36/36
f 44/44/44 39/39/39 41/41/41 43/43/43
f 40/40/40 44/44/44 43/43/43 42/42/42
f 47/47/47 45/45/45 48/48/48
f 48/48/48 46/46/46 47/47/47
f 51/51/51 52/52/52 49/49/49
f 52/52/52 51/51/51 50/50/50
f 60/60/60 57/57/57 53/53/53
f 60/60/60 54/54/54 59/59/59
f 58/58/58 57/57/57 60/60/60
f 60/60/60 59/59/59 58/58/58
f 58/58/58 59/59/59 56/56/56
f 55/55/55 57/57/57 58/58/58
