# Rhino

mtllib House.mtl
usemtl diffuse_0
v -4.445777416229248 0 4.893338680267334
v -4.445777416229248 7.0325541496276855 4.893338680267334
v 4.445777416229248 0 4.893338680267334
v 4.445777416229248 7.0325541496276855 4.893338680267334
v 4.445777416229248 0 4.893338680267334
v 4.445777416229248 7.0325541496276855 4.893338680267334
v 4.445777416229248 0 -4.893338680267334
v 4.445777416229248 7.0325541496276855 -4.893338680267334
v 4.445777416229248 0 -4.893338680267334
v 4.445777416229248 7.0325541496276855 -4.893338680267334
v -4.445777416229248 0 -4.893338680267334
v -4.445777416229248 7.0325541496276855 -4.893338680267334
v -4.445777416229248 0 -4.893338680267334
v -4.445777416229248 7.0325541496276855 -4.893338680267334
v -4.445777416229248 0 4.893338680267334
v -4.445777416229248 7.0325541496276855 4.893338680267334
v -4.445777416229248 7.0325541496276855 4.893338680267334
v -4.445777416229248 7.0325541496276855 -4.893338680267334
v 0 10.711637496948242 4.893338680267334
v 0 10.711637496948242 -4.893338680267334
v 0 10.711637496948242 4.893338680267334
v 0 10.711637496948242 -4.893338680267334
v 4.445777416229248 7.0325541496276855 4.893338680267334
v 4.445777416229248 7.0325541496276855 -4.893338680267334
v -4.445777416229248 7.0325541496276855 4.893338680267334
v 4.445777416229248 7.0325541496276855 4.893338680267334
v 0 10.711637496948242 4.893338680267334
v 4.445777416229248 7.0325541496276855 -4.893338680267334
v -4.445777416229248 7.0325541496276855 -4.893338680267334
v 0 10.711637496948242 -4.893338680267334
v -4.445777416229248 0 4.893338680267334
v -4.445777416229248 0 -4.893338680267334
v 4.445777416229248 0 4.893338680267334
v 4.445777416229248 0 -4.893338680267334
vt 0.34381550550460815 0.65251874923706055
vt 0.34381550550460815 0.89811438322067261
vt 0.65471965074539185 0.65251874923706055
vt 0.65471965074539185 0.89811438322067261
vt 0.65618449449539185 0
vt 0.65618449449539185 0.24706047773361206
vt 0.99853515625 0
vt 0.99853515625 0.24706047773361206
vt 0.34381550550460815 0.40545827150344849
vt 0.34381550550460815 0.65105390548706055
vt 0.65471965074539185 0.40545827150344849
vt 0.65471965074539185 0.65105390548706055
vt 0.65618449449539185 0.4497896134853363
vt 0.65618449449539185 0.69685012102127075
vt 0.99853515625 0.4497896134853363
vt 0.99853515625 0.69685012102127075
vt 0.34235066175460815 0.65251874923706055
vt 0 0.65251874923706055
vt 0.34235066175460815 0.85524791479110718
vt 0 0.85524791479110718
vt 0.34235066175460815 0.40545827150344849
vt 0 0.40545827150344849
vt 0.34235066175460815 0.60818743705749512
vt 0 0.60818743705749512
vt 0.64046120643615723 0.20272913575172424
vt 0.32809224724769592 0.20272913575172424
vt 0.64046120643615723 0.40399342775344849
vt 0.64046120643615723 0
vt 0.32809224724769592 0
vt 0.64046120643615723 0.20126429200172424
vt 0 0
vt 0 0.34381550550460815
vt 0.3123689591884613 0
vt 0.3123689591884613 0.34381550550460815
vn 0 0 1
vn 0 0 1
vn 0 0 1
vn 0 0 1
vn 1 0 0
vn 1 0 0
vn 1 0 0
vn 1 0 0
vn 0 0 -1
vn 0 0 -1
vn 0 0 -1
vn 0 0 -1
vn -1 0 0
vn -1 0 0
vn -1 0 0
vn -1 0 0
vn -0.63754916191101074 0.77040964365005493 0
vn -0.63754916191101074 0.77040964365005493 0
vn -0.63754916191101074 0.77040964365005493 0
vn -0.63754916191101074 0.77040964365005493 0
vn 0.63754916191101074 0.77040964365005493 0
vn 0.63754916191101074 0.77040964365005493 0
vn 0.63754916191101074 0.77040964365005493 0
vn 0.63754916191101074 0.77040964365005493 0
vn 0 0 1
vn 0 0 1
vn 0 0 1
vn 0 0 -1
vn 0 0 -1
vn 0 0 -1
vn 0 -1 0
vn 0 -1 0
vn 0 -1 0
vn 0 -1 0
f 2/2/2 1/1/1 3/3/3 4/4/4
f 6/6/6 5/5/5 7/7/7 8/8/8
f 10/10/10 9/9/9 11/11/11 12/12/12
f 14/14/14 13/13/13 15/15/15 16/16/16
f 18/18/18 17/17/17 19/19/19 20/20/20
f 22/22/22 21/21/21 23/23/23 24/24/24
f 26/26/26 27/27/27 25/25/25
f 29/29/29 30/30/30 28/28/28
f 32/32/32 34/34/34 33/33/33 31/31/31
